<svg version="1.1" viewBox="0 0 640 400" xmlns="http://www.w3.org/2000/svg" xmlns:xlink="http://www.w3.org/1999/xlink" xmlns:svgjs="http://svgjs.dev/svgjs" matcher="0.20591574748343033"><g viewBox="0 0 640 400" matcher="0.20591574748343033"><g matcher="0.20591574748343033"><g matcher="0.20591574748343033"><g matcher="0.20591574748343033"><svg viewBox="0 0 640 400" data-background-color="#d2d6dc" preserveAspectRatio="xMidYMid meet" height="400" width="640" xmlns="http://www.w3.org/2000/svg" xmlns:xlink="http://www.w3.org/1999/xlink"><rect width="640" height="400" x="0" y="0" opacity="1" fill="#d2d6dc" data-fill-palette-color="background" id="background"></rect><g id="tight-bounds" transform="matrix(1,0,0,1,160,20)"><svg viewBox="0 0 320 360" height="360" width="320"><rect width="320" height="360" fill="url(#c5c6e039-eca8-44c0-b42d-afb610a564cd)" mask="url(#4d5fa076-302b-4a9d-933d-c291e0644436)" data-fill-palette-color="tertiary"></rect><g><svg></svg></g><g><svg viewBox="0 0 320 360" height="360" width="320"><g><path xmlns="http://www.w3.org/2000/svg" d="M320 187.111c0-45.764-20.238-86.866-52.203-114.908-28.043-31.964-69.145-52.203-114.908-52.203-84.302 0-152.889 68.587-152.889 152.889 0 45.753 20.231 86.848 52.185 114.891 28.043 31.975 69.152 52.22 114.926 52.22 0.299 0 0.59-0.021 0.889-0.021 0.299 0 0.59 0.021 0.889 0.021 83.456 0 151.111-67.655 151.111-151.111 0-0.299-0.021-0.59-0.021-0.889 0-0.299 0.021-0.59 0.021-0.889zM59.833 263.097c-15.093-21.255-24.071-47.143-24.256-75.097 0.48-72.928 59.492-131.943 132.423-132.423 27.954 0.185 53.845 9.163 75.097 24.256 24.366 23.627 39.57 56.64 39.57 93.056 0 71.559-58.219 129.778-129.778 129.778-36.416 0-69.429-15.204-93.056-39.57zM3.556 172.889c0-82.343 66.99-149.333 149.333-149.333 35.051 0 67.292 12.167 92.8 32.462-22.98-13.824-49.863-21.796-78.578-21.796-84.302 0-152.889 68.587-152.889 152.889 0 28.708 7.968 55.584 21.785 78.56-20.288-25.5-32.452-57.739-32.451-92.782zM167.111 318.667c-35.84 0-68.363-14.418-92.107-37.743 21.952 15.89 48.864 25.298 77.885 25.298 73.522 0 133.333-59.812 133.333-133.333 0-29.02-9.408-55.932-25.298-77.885 23.324 23.744 37.742 56.267 37.743 92.107 0 72.54-59.015 131.556-131.556 131.556z" fill="url(#c5c6e039-eca8-44c0-b42d-afb610a564cd)" fill-rule="nonzero" stroke="none" stroke-width="1" stroke-linecap="butt" stroke-linejoin="miter" stroke-miterlimit="10" stroke-dasharray="" stroke-dashoffset="0" font-family="none" font-weight="none" font-size="none" text-anchor="none" style="mix-blend-mode: normal" data-fill-palette-color="tertiary"></path></g><g transform="matrix(1,0,0,1,64,160.79562906315712)"><svg viewBox="0 0 192 38.40874187368574" height="38.40874187368574" width="192"><g><svg viewBox="0 0 287.52016971966225 57.51712490750428" height="38.40874187368574" width="192"><g transform="matrix(1,0,0,1,95.52016971966223,0)"><svg viewBox="0 0 192 57.51712490750428" height="57.51712490750428" width="192"><g id="textblocktransform"><svg viewBox="0 0 192 57.51712490750428" height="57.51712490750428" width="192" id="textblock"><g><svg viewBox="0 0 192 37.70518697225573" height="37.70518697225573" width="192"><g transform="matrix(1,0,0,1,0,0)"><svg width="192" viewBox="0.45000001788139343 -38.75 207.22999572753906 40.70000076293945" height="37.70518697225573" data-palette-color="#461d66"><path d="M24.35-26.35Q24.1-27.15 22.43-27.78 20.75-28.4 18.05-28.4L18.05-28.4Q15.1-28.4 13.45-26.75 11.8-25.1 11.8-22.6L11.8-22.6Q11.8-21.05 12.93-20.23 14.05-19.4 16.4-18.4L16.4-18.4 18.2-17.65 19.7-16.95Q22.4-15.75 23.98-14.78 25.55-13.8 26.65-12.1 27.75-10.4 27.75-7.75L27.75-7.75Q27.75-4.9 25.88-2.83 24-0.75 20.65 0.33 17.3 1.4 12.85 1.4L12.85 1.4Q9.55 1.4 6.68 0.38 3.8-0.65 2.13-2.2 0.45-3.75 0.45-5.25L0.45-5.25Q0.45-6.7 1.7-7.63 2.95-8.55 5.25-8.9L5.25-8.9Q5.5-7.45 6.95-6.3 8.4-5.15 10.33-4.48 12.25-3.8 13.7-3.8L13.7-3.8Q16.35-3.8 18.43-4.85 20.5-5.9 20.5-7.75L20.5-7.75Q20.5-9.3 19.03-10.33 17.55-11.35 14.6-12.55L14.6-12.55 11.95-13.75Q8.7-15.35 6.8-17.35 4.9-19.35 4.9-22.65L4.9-22.65Q4.9-26.3 6.95-28.58 9-30.85 11.93-31.85 14.85-32.85 17.65-32.85L17.65-32.85Q22.1-32.85 24.98-31.7 27.85-30.55 29.15-28.8 30.45-27.05 30.45-25.2L30.45-25.2Q30.45-24.15 29.93-22.65 29.4-21.15 28.38-20.05 27.35-18.95 25.9-18.95L25.9-18.95Q23.4-18.95 23.4-21.55L23.4-21.55Q23.5-22.35 23.85-24.18 24.2-26 24.35-26.35L24.35-26.35ZM40.05-16.5Q41.2-18.75 43.22-20.35 45.25-21.95 47.35-22.8 49.45-23.65 50.8-23.65L50.8-23.65Q53.4-23.65 54.55-22.68 55.7-21.7 55.7-19.6L55.7-19.6Q52.75-11.9 51.8-3L51.8-3 52.5-0.55Q51.9 0.6 50.9 1.28 49.9 1.95 47.85 1.95L47.85 1.95Q46.65 1.95 46.1 1.15 45.55 0.35 45.55-0.85L45.55-0.85Q45.55-4.2 46.52-8.22 47.5-12.25 48.8-16.45L48.8-16.45Q49.3-18.05 49.3-18.1L49.3-18.1Q49.3-18.8 48.5-18.8L48.5-18.8Q47.45-18.8 45.45-17.25 43.45-15.7 41.3-12.03 39.15-8.35 37.7-2.4L37.7-2.4Q37.65-2.15 37.45-1.35 37.25-0.55 36.55-0.2 35.85 0.15 34.4 0.15L34.4 0.15Q32.65 0.15 31.7-0.23 30.75-0.6 30.75-1.7L30.75-1.7Q37.3-27.45 38.85-33.9L38.85-33.9Q38.8-34.55 38.77-35.63 38.75-36.7 38.75-37.3L38.75-37.3Q38.9-38 39.82-38.38 40.75-38.75 41.7-38.75L41.7-38.75Q43.3-38.75 44.4-37.9 45.5-37.05 45.6-35.75L45.6-35.75 40.05-16.5ZM68.2 1.05Q63.8 1.05 61.35-1.95 58.9-4.95 58.9-9.6L58.9-9.6Q58.9-13.5 60.77-16.95 62.65-20.4 65.9-22.5 69.15-24.6 73.05-24.6L73.05-24.6Q76.9-24.6 79.37-22.08 81.84-19.55 81.84-14.65L81.84-14.65Q81.84-11.2 79.95-7.5 78.05-3.8 74.87-1.38 71.7 1.05 68.2 1.05L68.2 1.05ZM68.95-2.95Q70.55-2.95 72.17-4.95 73.8-6.95 74.84-10 75.9-13.05 75.9-15.95L75.9-15.95Q75.9-20.4 72.2-20.4L72.2-20.4Q70.15-20.4 68.45-18.45 66.75-16.5 65.75-13.63 64.75-10.75 64.75-8.25L64.75-8.25Q64.75-6.8 65.4-5.58 66.05-4.35 67.02-3.65 68-2.95 68.95-2.95L68.95-2.95ZM93.09 1.05Q88.19 1.05 85.94-0.9 83.69-2.85 83.69-6.1L83.69-6.1Q83.69-10.85 86.07-14.9 88.44-18.95 92.42-21.33 96.39-23.7 100.99-23.7L100.99-23.7Q103.79-23.7 105.69-22.13 107.59-20.55 107.59-17.5L107.59-17.5Q107.59-15.75 106.47-14.63 105.34-13.5 103.24-12.63 101.14-11.75 96.44-10.15L96.44-10.15Q92.19-8.75 89.54-7.8L89.54-7.8Q89.34-7.05 89.34-6.25L89.34-6.25Q89.34-4.85 90.52-4.1 91.69-3.35 93.84-3.35L93.84-3.35Q95.19-3.35 96.94-3.9 98.69-4.45 99.14-5.3L99.14-5.3Q100.84-8.4 102.24-8.4L102.24-8.4Q104.29-8.4 105.02-7.63 105.74-6.85 105.79-5.9L105.79-5.9Q105.19-4.3 103.44-2.68 101.69-1.05 98.99 0 96.29 1.05 93.09 1.05L93.09 1.05ZM90.94-12.4Q95.89-14 99.09-15.38 102.29-16.75 102.29-18.1L102.29-18.1Q102.29-18.7 101.64-19.07 100.99-19.45 100.24-19.45L100.24-19.45Q98.74-19.45 96.82-18.3 94.89-17.15 93.24-15.5 91.59-13.85 90.94-12.4L90.94-12.4ZM112.84-22.85Q112.69-23 112.69-23.2L112.69-23.2Q112.69-23.7 113.79-24.03 114.89-24.35 116.84-24.35L116.84-24.35Q118.64-24.35 119.49-23.43 120.34-22.5 120.49-21.2L120.49-21.2 119.59-17.95Q120.64-19.4 122.54-20.73 124.44-22.05 126.39-22.85 128.34-23.65 129.59-23.65L129.59-23.65Q132.24-23.65 133.44-22.68 134.64-21.7 134.64-19.6L134.64-19.6Q131.69-11.9 130.74-3L130.74-3 131.44-0.55Q130.84 0.6 129.77 1.28 128.69 1.95 126.64 1.95L126.64 1.95Q125.44 1.95 124.89 1.15 124.34 0.35 124.34-0.85L124.34-0.85Q124.34-4.2 125.32-8.22 126.29-12.25 127.59-16.45L127.59-16.45Q128.09-18.05 128.09-18.1L128.09-18.1Q128.09-18.8 127.29-18.8L127.29-18.8Q126.19-18.8 123.97-17.25 121.74-15.7 119.39-12.03 117.04-8.35 115.59-2.4L115.59-2.4Q115.49-2.1 115.34-1.3 115.19-0.5 114.54-0.18 113.89 0.15 112.44 0.15L112.44 0.15Q110.79 0.15 110.02-0.2 109.24-0.55 109.24-1.7L109.24-1.7Q109.39-2.4 109.69-3.4L109.69-3.4Q112.59-15.05 114.14-21.35L114.14-21.35 112.84-22.85ZM145.74 1.05Q140.84 1.05 138.59-0.9 136.34-2.85 136.34-6.1L136.34-6.1Q136.34-10.85 138.71-14.9 141.09-18.95 145.06-21.33 149.04-23.7 153.64-23.7L153.64-23.7Q156.44-23.7 158.34-22.13 160.24-20.55 160.24-17.5L160.24-17.5Q160.24-15.75 159.11-14.63 157.99-13.5 155.89-12.63 153.79-11.75 149.09-10.15L149.09-10.15Q144.84-8.75 142.19-7.8L142.19-7.8Q141.99-7.05 141.99-6.25L141.99-6.25Q141.99-4.85 143.16-4.1 144.34-3.35 146.49-3.35L146.49-3.35Q147.84-3.35 149.59-3.9 151.34-4.45 151.79-5.3L151.79-5.3Q153.49-8.4 154.89-8.4L154.89-8.4Q156.94-8.4 157.66-7.63 158.39-6.85 158.44-5.9L158.44-5.9Q157.84-4.3 156.09-2.68 154.34-1.05 151.64 0 148.94 1.05 145.74 1.05L145.74 1.05ZM143.59-12.4Q148.54-14 151.74-15.38 154.94-16.75 154.94-18.1L154.94-18.1Q154.94-18.7 154.29-19.07 153.64-19.45 152.89-19.45L152.89-19.45Q151.39-19.45 149.46-18.3 147.54-17.15 145.89-15.5 144.24-13.85 143.59-12.4L143.59-12.4ZM183.89-24.5Q185.49-24.5 185.94-23.75 186.39-23 186.39-21.9L186.39-21.9Q186.39-21.15 186.19-20.88 185.99-20.6 185.39-20.25L185.39-20.25Q184.49-19.65 183.74-19.05L183.74-19.05Q182.74-18.15 176.79-11.45L176.79-11.45Q179.04-7.4 181.04-4.15L181.04-4.15Q181.99-2.65 181.99-1.4L181.99-1.4Q181.99-0.7 181.24-0.15L181.24-0.15Q180.64 0.3 179.54 0.3L179.54 0.3Q178.44 0.3 176.69-1.75L176.69-1.75Q175.19-3.6 172.99-7.2L172.99-7.2Q167.09-0.55 165.74 0.4L165.74 0.4Q164.89 1 163.79 1L163.79 1Q163.14 1 162.34 0.23 161.54-0.55 161.54-1.25L161.54-1.25Q161.54-1.7 161.59-1.95L161.59-1.95 162.59-2.85Q163.49-3.65 170.54-11.55L170.54-11.55Q168.94-14.65 167.94-17.32 166.94-20 166.94-21.6L166.94-21.6Q166.94-23.05 167.84-23.55 168.74-24.05 170.49-24.05L170.49-24.05Q171.34-24.05 172.19-23.63 173.04-23.2 173.04-22.5L173.04-22.5 172.99-21.75Q172.99-19.6 174.49-16.15L174.49-16.15Q177.94-20.2 180.31-22.35 182.69-24.5 183.89-24.5L183.89-24.5ZM198.38-18.1L195.23-5.5Q195.23-4.35 195.83-3.68 196.43-3 197.53-3L197.53-3Q199.03-3 200.01-3.88 200.98-4.75 202.08-6.35L202.08-6.35Q202.88-7.5 203.38-8 203.88-8.5 204.53-8.5L204.53-8.5Q205.83-8.5 206.38-8.18 206.93-7.85 206.93-6.85L206.93-6.85Q206.93-6.4 206.83-5.78 206.73-5.15 206.58-4.85L206.58-4.85Q205.38-2.3 202.66-0.45 199.93 1.4 196.48 1.4L196.48 1.4Q193.03 1.4 191.28-0.28 189.53-1.95 189.53-5.05L189.53-5.05Q189.53-5.5 189.98-7.4 190.43-9.3 191.13-11.95L191.13-11.95 192.53-17.65 189.48-17.4Q188.88-17.4 188.58-17.85 188.28-18.3 188.28-18.95L188.28-18.95Q188.28-20.2 189.18-21.45L189.18-21.45Q189.28-21.6 190.18-21.75 191.08-21.9 192.38-22.05L192.38-22.05 193.73-22.2 195.43-29.5Q195.93-30.8 196.96-31.53 197.98-32.25 198.88-32.25L198.88-32.25Q199.88-32.25 200.58-31.65 201.28-31.05 201.33-30.25L201.33-30.25 199.53-22.75Q201.48-23 203.16-23.18 204.83-23.35 205.78-23.35L205.78-23.35Q207.68-23.35 207.68-21.15L207.68-21.15Q207.68-20.3 206.96-19.63 206.23-18.95 205.38-18.8L205.38-18.8 198.38-18.1Z" opacity="1" transform="matrix(1,0,0,1,0,0)" fill="#461d66" class="wordmark-text-0" data-fill-palette-color="primary" id="text-0"></path></svg></g></svg></g><g transform="matrix(1,0,0,1,36.672,46.606476691917976)"><svg viewBox="0 0 118.656 10.910648215586308" height="10.910648215586308" width="118.656"><g transform="matrix(1,0,0,1,0,0)"><svg width="118.656" viewBox="2.9000000953674316 -37.75 549.1499633789062 50.5" height="10.910648215586308" data-palette-color="#8c8c8c"><path d="M24.2-24.4L22.4-24.4Q22.25-26.8 21.25-28.95 20.25-31.1 18.35-32.45 16.45-33.8 13.5-33.8L13.5-33.8Q10.4-33.8 8.75-32.05 7.1-30.3 7.1-27.95L7.1-27.95Q7.1-25.85 8.3-24.43 9.5-23 11.43-21.93 13.35-20.85 15.5-19.85L15.5-19.85Q17.4-19 19.3-18.03 21.2-17.05 22.75-15.8 24.3-14.55 25.23-12.83 26.15-11.1 26.15-8.7L26.15-8.7Q26.15-5.95 24.78-3.8 23.4-1.65 20.8-0.43 18.2 0.8 14.45 0.8L14.45 0.8Q12.2 0.8 9.8 0.15 7.4-0.5 5.55-1.75L5.55-1.75 5.8 0.4 3.2 0.4 2.9-10.25 4.85-10.25Q5.1-5.85 7.9-3.58 10.7-1.3 14.65-1.3L14.65-1.3Q16.6-1.3 18.25-2.02 19.9-2.75 20.88-4.15 21.85-5.55 21.85-7.55L21.85-7.55Q21.85-9.8 20.65-11.3 19.45-12.8 17.55-13.9 15.65-15 13.5-16L13.5-16Q11.6-16.85 9.75-17.8 7.9-18.75 6.38-19.98 4.85-21.2 3.93-22.9 3-24.6 3-27L3-27Q3-28.3 3.45-29.8 3.9-31.3 5.03-32.68 6.15-34.05 8.13-34.93 10.1-35.8 13.15-35.8L13.15-35.8Q15.05-35.8 17.43-35.27 19.8-34.75 21.85-33.25L21.85-33.25 21.65-35.4 24.2-35.4 24.2-24.4ZM46.6 0L46.6-1.5Q48.15-1.5 48.75-2.27 49.35-3.05 49.45-4.42 49.55-5.8 49.55-7.6L49.55-7.6 49.55-14.6Q49.55-18.9 48.17-21.05 46.8-23.2 43.85-23.15L43.85-23.15Q42-23.1 40.22-22.25 38.45-21.4 37.35-20.05L37.35-20.05 37.35-5.3Q37.35-4.3 37.3-3.53 37.25-2.75 37.1-1.9L37.1-1.9Q37.9-1.95 38.67-1.98 39.45-2 40.25-2.05L40.25-2.05 40.25 0 30.05 0 30.05-1.5Q31.6-1.5 32.2-2.27 32.8-3.05 32.92-4.42 33.05-5.8 33.05-7.6L33.05-7.6 33.05-31.25Q33.05-32.05 33.07-32.77 33.1-33.5 33.2-34.5L33.2-34.5Q32.3-34.45 31.42-34.4 30.55-34.35 29.65-34.3L29.65-34.3 29.65-36.4Q31.85-36.4 33.07-36.6 34.3-36.8 34.92-37.1 35.55-37.4 35.9-37.75L35.9-37.75 37.35-37.75 37.35-22.5Q38.45-23.45 39.82-24.18 41.2-24.9 42.67-25.35 44.15-25.8 45.55-25.8L45.55-25.8Q49.9-25.8 51.82-23.08 53.75-20.35 53.8-14.6L53.8-14.6 53.85-5.3Q53.85-4.3 53.82-3.53 53.8-2.75 53.65-1.9L53.65-1.9Q54.45-1.95 55.22-1.98 56-2 56.8-2.05L56.8-2.05 56.8 0 46.6 0ZM72.9 0.8L72.9 0.8Q69.4 0.8 66.55-0.83 63.7-2.45 62.02-5.33 60.34-8.2 60.34-11.9L60.34-11.9Q60.34-15.85 62-19 63.65-22.15 66.5-23.98 69.34-25.8 72.9-25.8L72.9-25.8Q76.4-25.8 79.25-24.13 82.09-22.45 83.8-19.6 85.5-16.75 85.5-13.1L85.5-13.1Q85.5-9.25 83.82-6.08 82.15-2.9 79.3-1.05 76.45 0.8 72.9 0.8ZM73.3-1.2L73.3-1.2Q75.95-1.2 77.5-2.7 79.05-4.2 79.72-6.6 80.4-9 80.4-11.65L80.4-11.65Q80.4-13.9 79.97-16.07 79.55-18.25 78.65-20.03 77.75-21.8 76.32-22.85 74.9-23.9 72.9-23.9L72.9-23.9Q70.3-23.9 68.65-22.4 67-20.9 66.22-18.5 65.45-16.1 65.45-13.35L65.45-13.35Q65.45-10.25 66.3-7.48 67.14-4.7 68.9-2.95 70.65-1.2 73.3-1.2ZM101.84 0.8L101.84 0.8Q98.39 0.8 95.62-0.83 92.84-2.45 91.24-5.43 89.64-8.4 89.64-12.45L89.64-12.45Q89.64-15.95 91.22-19 92.79-22.05 95.64-23.93 98.49-25.8 102.24-25.8L102.24-25.8Q104.34-25.8 106.17-25.13 107.99-24.45 109.39-23.08 110.79-21.7 111.59-19.63 112.39-17.55 112.39-14.75L112.39-14.75 94.79-14.45Q94.79-10.65 95.62-7.78 96.44-4.9 98.29-3.33 100.14-1.75 103.04-1.75L103.04-1.75Q104.59-1.75 106.22-2.3 107.84-2.85 109.24-3.8 110.64-4.75 111.49-5.9L111.49-5.9 112.69-4.9Q111.34-2.8 109.44-1.55 107.54-0.3 105.54 0.25 103.54 0.8 101.84 0.8ZM94.94-16.55L94.94-16.55 107.69-16.55Q107.69-18.35 107.17-20.03 106.64-21.7 105.44-22.78 104.24-23.85 102.29-23.85L102.29-23.85Q99.39-23.85 97.47-22.13 95.54-20.4 94.94-16.55ZM127.09 0.8L127.09 0.8Q124.59 0.8 122.64 0.13 120.69-0.55 119.44-1.4L119.44-1.4 119.64 0.35 117.54 0.35 117.24-8.25 118.79-8.25Q118.89-6.2 119.94-4.58 120.99-2.95 122.64-2.05 124.29-1.15 126.19-1.15L126.19-1.15Q127.49-1.15 128.74-1.58 129.99-2 130.84-2.88 131.69-3.75 131.69-5.1L131.69-5.1Q131.69-6.5 130.87-7.43 130.04-8.35 128.69-9.05 127.34-9.75 125.79-10.35L125.79-10.35Q124.29-10.95 122.79-11.6 121.29-12.25 120.02-13.15 118.74-14.05 117.99-15.35 117.24-16.65 117.24-18.55L117.24-18.55Q117.24-19.6 117.64-20.85 118.04-22.1 118.99-23.23 119.94-24.35 121.59-25.08 123.24-25.8 125.79-25.8L125.79-25.8Q127.14-25.8 128.79-25.35 130.44-24.9 131.99-23.65L131.99-23.65 131.89-25.55 133.99-25.55 133.99-16.8 132.39-16.8Q132.29-18.55 131.59-20.18 130.89-21.8 129.54-22.88 128.19-23.95 126.04-23.95L126.04-23.95Q123.74-23.95 122.44-22.8 121.14-21.65 121.14-20.15L121.14-20.15Q121.14-18.6 122.12-17.57 123.09-16.55 124.64-15.8 126.19-15.05 127.94-14.35L127.94-14.35Q129.84-13.55 131.64-12.6 133.44-11.65 134.59-10.23 135.74-8.8 135.74-6.55L135.74-6.55Q135.74-4.05 134.47-2.4 133.19-0.75 131.22 0.03 129.24 0.8 127.09 0.8ZM156.04 0L156.04-1.5Q157.59-1.5 158.19-2.27 158.79-3.05 158.89-4.42 158.99-5.8 158.99-7.6L158.99-7.6 158.99-14.6Q158.99-18.9 157.61-21.05 156.24-23.2 153.29-23.15L153.29-23.15Q151.44-23.1 149.66-22.25 147.89-21.4 146.79-20.05L146.79-20.05 146.79-5.3Q146.79-4.3 146.74-3.53 146.69-2.75 146.54-1.9L146.54-1.9Q147.34-1.95 148.11-1.98 148.89-2 149.69-2.05L149.69-2.05 149.69 0 139.49 0 139.49-1.5Q141.04-1.5 141.64-2.27 142.24-3.05 142.36-4.42 142.49-5.8 142.49-7.6L142.49-7.6 142.49-31.25Q142.49-32.05 142.51-32.77 142.54-33.5 142.64-34.5L142.64-34.5Q141.74-34.45 140.86-34.4 139.99-34.35 139.09-34.3L139.09-34.3 139.09-36.4Q141.29-36.4 142.51-36.6 143.74-36.8 144.36-37.1 144.99-37.4 145.34-37.75L145.34-37.75 146.79-37.75 146.79-22.5Q147.89-23.45 149.26-24.18 150.64-24.9 152.11-25.35 153.59-25.8 154.99-25.8L154.99-25.8Q159.34-25.8 161.26-23.08 163.19-20.35 163.24-14.6L163.24-14.6 163.29-5.3Q163.29-4.3 163.26-3.53 163.24-2.75 163.09-1.9L163.09-1.9Q163.89-1.95 164.66-1.98 165.44-2 166.24-2.05L166.24-2.05 166.24 0 156.04 0ZM182.34 0.8L182.34 0.8Q178.84 0.8 175.99-0.83 173.14-2.45 171.46-5.33 169.79-8.2 169.79-11.9L169.79-11.9Q169.79-15.85 171.44-19 173.09-22.15 175.94-23.98 178.79-25.8 182.34-25.8L182.34-25.8Q185.84-25.8 188.69-24.13 191.54-22.45 193.24-19.6 194.94-16.75 194.94-13.1L194.94-13.1Q194.94-9.25 193.26-6.08 191.59-2.9 188.74-1.05 185.89 0.8 182.34 0.8ZM182.74-1.2L182.74-1.2Q185.39-1.2 186.94-2.7 188.49-4.2 189.16-6.6 189.84-9 189.84-11.65L189.84-11.65Q189.84-13.9 189.41-16.07 188.99-18.25 188.09-20.03 187.19-21.8 185.76-22.85 184.34-23.9 182.34-23.9L182.34-23.9Q179.74-23.9 178.09-22.4 176.44-20.9 175.66-18.5 174.89-16.1 174.89-13.35L174.89-13.35Q174.89-10.25 175.74-7.48 176.59-4.7 178.34-2.95 180.09-1.2 182.74-1.2ZM208.93 12.75L198.73 12.75 198.73 11.25Q200.28 11.25 200.88 10.48 201.48 9.7 201.58 8.33 201.68 6.95 201.68 5.15L201.68 5.15 201.78-19Q201.78-19.8 201.81-20.6 201.83-21.4 201.98-22.25L201.98-22.25Q201.08-22.2 200.21-22.15 199.33-22.1 198.43-22.05L198.43-22.05 198.43-24.15Q200.63-24.15 201.76-24.35 202.88-24.55 203.41-24.85 203.93-25.15 204.28-25.5L204.28-25.5 205.78-25.5Q205.83-25 205.88-24.33 205.93-23.65 205.98-22.8L205.98-22.8Q207.48-24.15 209.56-24.98 211.63-25.8 213.73-25.8L213.73-25.8Q216.63-25.8 219.13-24.3 221.63-22.8 223.18-20.03 224.73-17.25 224.73-13.4L224.73-13.4Q224.73-9.15 222.96-5.95 221.18-2.75 218.28-0.98 215.38 0.8 211.98 0.8L211.98 0.8Q210.23 0.8 208.76 0.38 207.28-0.05 205.98-0.85L205.98-0.85 205.98 7.45Q205.98 8.45 205.96 9.22 205.93 10 205.78 10.85L205.78 10.85Q206.58 10.8 207.36 10.78 208.13 10.75 208.93 10.7L208.93 10.7 208.93 12.75ZM211.88-1.2L211.88-1.2Q214.28-1.2 216.01-2.68 217.73-4.15 218.66-6.73 219.58-9.3 219.58-12.6L219.58-12.6Q219.58-15.3 218.81-17.78 218.03-20.25 216.36-21.8 214.68-23.35 211.93-23.35L211.93-23.35Q210.23-23.35 208.66-22.53 207.08-21.7 206.03-20.55L206.03-20.55Q206.03-20.35 206.06-19.98 206.08-19.6 206.08-18.68 206.08-17.75 206.08-15.93 206.08-14.1 206.06-11 206.03-7.9 206.03-3.15L206.03-3.15Q207.28-2.2 208.76-1.7 210.23-1.2 211.88-1.2ZM232.73 8.95L232.73 8.95 231.38 7.95Q231.93 7.25 232.53 5.95 233.13 4.65 233.51 3.08 233.88 1.5 233.68 0L233.68 0Q233.33 0.15 233.03 0.23 232.73 0.3 232.43 0.3L232.43 0.3Q231.48 0.3 230.81-0.4 230.13-1.1 230.13-2.15L230.13-2.15Q230.13-3.55 230.96-4.3 231.78-5.05 232.88-5.05L232.88-5.05Q234.63-5.05 235.53-3.73 236.43-2.4 236.43-0.5L236.43-0.5Q236.43 0.75 235.96 2.55 235.48 4.35 234.66 6.08 233.83 7.8 232.73 8.95ZM274.43-12.95L272.78-12.95Q272.78-15.15 272.18-16.1 271.58-17.05 270.28-17.25 268.98-17.45 266.83-17.35L266.83-17.35 263.18-17.2 263.18-5.75Q263.18-4.4 263.15-3.45 263.13-2.5 263.03-1.85L263.03-1.85 272.58-2Q274.78-2.05 276.38-2.73 277.98-3.4 278.88-5.1 279.78-6.8 279.78-9.75L279.78-9.75 281.48-9.75 281.18 0 255.38 0 255.38-1.65Q257.28-1.75 257.98-2.53 258.68-3.3 258.75-4.67 258.83-6.05 258.83-7.8L258.83-7.8 258.83-29.4Q258.83-30.4 258.88-31.33 258.93-32.25 258.98-33L258.98-33Q258.08-32.95 257.18-32.9 256.28-32.85 255.38-32.8L255.38-32.8 255.38-35 279.43-35 279.68-26.25 278.03-26.25Q278.03-29.2 277.13-30.73 276.23-32.25 274.7-32.77 273.18-33.3 271.28-33.25L271.28-33.25 266.98-33.15Q265.13-33.1 264.33-32.45 263.53-31.8 263.35-30.53 263.18-29.25 263.18-27.2L263.18-27.2 263.18-19.2 272.58-19.15 272.23-23.45 274.43-23.45 274.43-12.95ZM303.82-14.45L286.07-14.25 286.07-17.75 303.82-17.75 303.82-14.45ZM321.57 0.8L321.57 0.8Q318.22 0.8 315.4-0.73 312.57-2.25 310.9-5.13 309.22-8 309.22-12.05L309.22-12.05Q309.22-14.65 310.17-17.1 311.12-19.55 312.85-21.53 314.57-23.5 316.97-24.65 319.37-25.8 322.27-25.8L322.27-25.8Q325.07-25.8 327.15-24.95 329.22-24.1 330.37-22.7 331.52-21.3 331.52-19.65L331.52-19.65Q331.52-18.55 330.92-17.78 330.32-17 329.17-17L329.17-17Q327.92-16.95 327.4-17.78 326.87-18.6 326.87-19.25L326.87-19.25Q326.87-19.75 327.02-20.28 327.17-20.8 327.62-21.25L327.62-21.25Q327.22-22.45 326.22-23.03 325.22-23.6 324.15-23.78 323.07-23.95 322.37-23.95L322.37-23.95Q318.97-23.95 316.65-21.23 314.32-18.5 314.32-13.3L314.32-13.3Q314.32-9.95 315.4-7.35 316.47-4.75 318.42-3.28 320.37-1.8 322.92-1.8L322.92-1.8Q325.27-1.8 327.42-3.05 329.57-4.3 330.77-6.1L330.77-6.1 332.07-5.1Q330.77-3 328.94-1.7 327.12-0.4 325.19 0.2 323.27 0.8 321.57 0.8ZM348.12 0.8L348.12 0.8Q344.62 0.8 341.77-0.83 338.92-2.45 337.24-5.33 335.57-8.2 335.57-11.9L335.57-11.9Q335.57-15.85 337.22-19 338.87-22.15 341.72-23.98 344.57-25.8 348.12-25.8L348.12-25.8Q351.62-25.8 354.47-24.13 357.32-22.45 359.02-19.6 360.72-16.75 360.72-13.1L360.72-13.1Q360.72-9.25 359.04-6.08 357.37-2.9 354.52-1.05 351.67 0.8 348.12 0.8ZM348.52-1.2L348.52-1.2Q351.17-1.2 352.72-2.7 354.27-4.2 354.94-6.6 355.62-9 355.62-11.65L355.62-11.65Q355.62-13.9 355.19-16.07 354.77-18.25 353.87-20.03 352.97-21.8 351.54-22.85 350.12-23.9 348.12-23.9L348.12-23.9Q345.52-23.9 343.87-22.4 342.22-20.9 341.44-18.5 340.67-16.1 340.67-13.35L340.67-13.35Q340.67-10.25 341.52-7.48 342.37-4.7 344.12-2.95 345.87-1.2 348.52-1.2ZM375.17 0L364.97 0 364.97-1.5Q366.52-1.5 367.12-2.27 367.72-3.05 367.82-4.42 367.92-5.8 367.92-7.6L367.92-7.6 367.92-19Q367.92-19.8 367.94-20.6 367.97-21.4 368.12-22.25L368.12-22.25Q367.22-22.2 366.34-22.15 365.47-22.1 364.57-22.05L364.57-22.05 364.57-24.15Q366.77-24.15 367.89-24.35 369.02-24.55 369.57-24.85 370.12-25.15 370.47-25.5L370.47-25.5 371.92-25.5Q372.02-25 372.04-24.35 372.07-23.7 372.12-22.85L372.12-22.85Q373.62-24.15 375.57-24.98 377.52-25.8 379.47-25.8L379.47-25.8Q381.97-25.8 383.67-24.9 385.37-24 386.32-22.45L386.32-22.45Q388.02-23.85 390.24-24.83 392.47-25.8 394.62-25.8L394.62-25.8Q398.97-25.8 401.02-23.18 403.07-20.55 402.97-14.6L402.97-14.6 402.92-5.3Q402.92-4.3 402.89-3.53 402.87-2.75 402.72-1.9L402.72-1.9Q403.52-1.95 404.29-1.98 405.07-2 405.87-2.05L405.87-2.05 405.87 0 395.67 0 395.67-1.5Q397.22-1.5 397.82-2.27 398.42-3.05 398.52-4.42 398.62-5.8 398.62-7.6L398.62-7.6 398.62-14.6Q398.62-18.9 397.24-21.05 395.87-23.2 392.92-23.15L392.92-23.15Q391.37-23.15 389.82-22.45 388.27-21.75 387.12-20.7L387.12-20.7Q387.37-19.9 387.49-18.98 387.62-18.05 387.62-17.05L387.62-17.05Q387.57-14.15 387.57-11.2 387.57-8.25 387.52-5.3L387.52-5.3Q387.52-4.3 387.49-3.53 387.47-2.75 387.32-1.9L387.32-1.9Q388.12-1.95 388.89-1.98 389.67-2 390.47-2.05L390.47-2.05 390.47 0 380.27 0 380.27-1.5Q381.82-1.5 382.39-2.27 382.97-3.05 383.09-4.42 383.22-5.8 383.22-7.6L383.22-7.6 383.27-14.6Q383.32-18.9 382.02-21.1 380.72-23.3 377.77-23.25L377.77-23.25Q376.22-23.25 374.72-22.58 373.22-21.9 372.17-20.85L372.17-20.85Q372.17-20.25 372.19-19.58 372.22-18.9 372.22-18.15L372.22-18.15 372.22-5.3Q372.22-4.3 372.19-3.53 372.17-2.75 372.02-1.9L372.02-1.9Q372.82-1.95 373.59-1.98 374.37-2 375.17-2.05L375.17-2.05 375.17 0ZM419.86 0L409.66 0 409.66-1.5Q411.21-1.5 411.81-2.27 412.41-3.05 412.51-4.42 412.61-5.8 412.61-7.6L412.61-7.6 412.61-19Q412.61-19.8 412.64-20.6 412.66-21.4 412.81-22.25L412.81-22.25Q411.91-22.2 411.04-22.15 410.16-22.1 409.26-22.05L409.26-22.05 409.26-24.15Q411.46-24.15 412.59-24.35 413.71-24.55 414.26-24.85 414.81-25.15 415.16-25.5L415.16-25.5 416.61-25.5Q416.71-25 416.74-24.35 416.76-23.7 416.81-22.85L416.81-22.85Q418.31-24.15 420.26-24.98 422.21-25.8 424.16-25.8L424.16-25.8Q426.66-25.8 428.36-24.9 430.06-24 431.01-22.45L431.01-22.45Q432.71-23.85 434.94-24.83 437.16-25.8 439.31-25.8L439.31-25.8Q443.66-25.8 445.71-23.18 447.76-20.55 447.66-14.6L447.66-14.6 447.61-5.3Q447.61-4.3 447.59-3.53 447.56-2.75 447.41-1.9L447.41-1.9Q448.21-1.95 448.99-1.98 449.76-2 450.56-2.05L450.56-2.05 450.56 0 440.36 0 440.36-1.5Q441.91-1.5 442.51-2.27 443.11-3.05 443.21-4.42 443.31-5.8 443.31-7.6L443.31-7.6 443.31-14.6Q443.31-18.9 441.94-21.05 440.56-23.2 437.61-23.15L437.61-23.15Q436.06-23.15 434.51-22.45 432.96-21.75 431.81-20.7L431.81-20.7Q432.06-19.9 432.19-18.98 432.31-18.05 432.31-17.05L432.31-17.05Q432.26-14.15 432.26-11.2 432.26-8.25 432.21-5.3L432.21-5.3Q432.21-4.3 432.19-3.53 432.16-2.75 432.01-1.9L432.01-1.9Q432.81-1.95 433.59-1.98 434.36-2 435.16-2.05L435.16-2.05 435.16 0 424.96 0 424.96-1.5Q426.51-1.5 427.09-2.27 427.66-3.05 427.79-4.42 427.91-5.8 427.91-7.6L427.91-7.6 427.96-14.6Q428.01-18.9 426.71-21.1 425.41-23.3 422.46-23.25L422.46-23.25Q420.91-23.25 419.41-22.58 417.91-21.9 416.86-20.85L416.86-20.85Q416.86-20.25 416.89-19.58 416.91-18.9 416.91-18.15L416.91-18.15 416.91-5.3Q416.91-4.3 416.89-3.53 416.86-2.75 416.71-1.9L416.71-1.9Q417.51-1.95 418.29-1.98 419.06-2 419.86-2.05L419.86-2.05 419.86 0ZM466.46 0.8L466.46 0.8Q463.01 0.8 460.24-0.83 457.46-2.45 455.86-5.43 454.26-8.4 454.26-12.45L454.26-12.45Q454.26-15.95 455.84-19 457.41-22.05 460.26-23.93 463.11-25.8 466.86-25.8L466.86-25.8Q468.96-25.8 470.79-25.13 472.61-24.45 474.01-23.08 475.41-21.7 476.21-19.63 477.01-17.55 477.01-14.75L477.01-14.75 459.41-14.45Q459.41-10.65 460.24-7.78 461.06-4.9 462.91-3.33 464.76-1.75 467.66-1.75L467.66-1.75Q469.21-1.75 470.84-2.3 472.46-2.85 473.86-3.8 475.26-4.75 476.11-5.9L476.11-5.9 477.31-4.9Q475.96-2.8 474.06-1.55 472.16-0.3 470.16 0.25 468.16 0.8 466.46 0.8ZM459.56-16.55L459.56-16.55 472.31-16.55Q472.31-18.35 471.79-20.03 471.26-21.7 470.06-22.78 468.86-23.85 466.91-23.85L466.91-23.85Q464.01-23.85 462.09-22.13 460.16-20.4 459.56-16.55ZM481.46 0L481.46-1.5Q483.01-1.5 483.61-2.27 484.21-3.05 484.31-4.42 484.41-5.8 484.41-7.6L484.41-7.6 484.41-19Q484.41-19.8 484.43-20.6 484.46-21.4 484.61-22.25L484.61-22.25Q483.71-22.2 482.83-22.18 481.96-22.15 481.06-22.1L481.06-22.1 481.06-24.15 482.61-24.15Q484.76-24.15 485.58-24.58 486.41-25 486.96-25.5L486.96-25.5 488.41-25.5Q488.51-24.7 488.56-23.53 488.61-22.35 488.66-20.55L488.66-20.55Q489.41-21.8 490.71-23 492.01-24.2 493.63-25 495.26-25.8 497.06-25.8L497.06-25.8Q498.46-25.8 499.51-25.05 500.56-24.3 500.56-22.65L500.56-22.65Q500.56-22.25 500.31-21.68 500.06-21.1 499.51-20.68 498.96-20.25 498.06-20.25L498.06-20.25Q496.96-20.3 496.31-21.13 495.66-21.95 495.81-23.05L495.81-23.05Q494.56-23.1 493.23-22.4 491.91-21.7 490.76-20.48 489.61-19.25 488.71-17.6L488.71-17.6 488.76-5.3Q488.76-4.3 488.73-3.53 488.71-2.75 488.56-1.9L488.56-1.9Q489.36-1.95 490.13-1.98 490.91-2 491.71-2.05L491.71-2.05 491.71 0 481.46 0ZM514.96 0.8L514.96 0.8Q511.61 0.8 508.78-0.73 505.95-2.25 504.28-5.13 502.61-8 502.61-12.05L502.61-12.05Q502.61-14.65 503.56-17.1 504.5-19.55 506.23-21.53 507.95-23.5 510.36-24.65 512.75-25.8 515.65-25.8L515.65-25.8Q518.46-25.8 520.53-24.95 522.61-24.1 523.75-22.7 524.9-21.3 524.9-19.65L524.9-19.65Q524.9-18.55 524.31-17.78 523.71-17 522.56-17L522.56-17Q521.31-16.95 520.78-17.78 520.25-18.6 520.25-19.25L520.25-19.25Q520.25-19.75 520.4-20.28 520.56-20.8 521-21.25L521-21.25Q520.61-22.45 519.61-23.03 518.61-23.6 517.53-23.78 516.46-23.95 515.75-23.95L515.75-23.95Q512.36-23.95 510.03-21.23 507.7-18.5 507.7-13.3L507.7-13.3Q507.7-9.95 508.78-7.35 509.86-4.75 511.81-3.28 513.75-1.8 516.31-1.8L516.31-1.8Q518.65-1.8 520.81-3.05 522.96-4.3 524.15-6.1L524.15-6.1 525.46-5.1Q524.15-3 522.33-1.7 520.5-0.4 518.58 0.2 516.65 0.8 514.96 0.8ZM541.2 0.8L541.2 0.8Q537.75 0.8 534.98-0.83 532.2-2.45 530.6-5.43 529-8.4 529-12.45L529-12.45Q529-15.95 530.58-19 532.15-22.05 535-23.93 537.85-25.8 541.6-25.8L541.6-25.8Q543.7-25.8 545.53-25.13 547.35-24.45 548.75-23.08 550.15-21.7 550.95-19.63 551.75-17.55 551.75-14.75L551.75-14.75 534.15-14.45Q534.15-10.65 534.98-7.78 535.8-4.9 537.65-3.33 539.5-1.75 542.4-1.75L542.4-1.75Q543.95-1.75 545.58-2.3 547.2-2.85 548.6-3.8 550-4.75 550.85-5.9L550.85-5.9 552.05-4.9Q550.7-2.8 548.8-1.55 546.9-0.3 544.9 0.25 542.9 0.8 541.2 0.8ZM534.3-16.55L534.3-16.55 547.05-16.55Q547.05-18.35 546.53-20.03 546-21.7 544.8-22.78 543.6-23.85 541.65-23.85L541.65-23.85Q538.75-23.85 536.83-22.13 534.9-20.4 534.3-16.55Z" opacity="1" transform="matrix(1,0,0,1,0,0)" fill="#8c8c8c" class="slogan-text-1" data-fill-palette-color="secondary" id="text-1"></path></svg></g></svg></g></svg></g></svg></g><g transform="matrix(1,0,0,1,0,8.481127060800432)"><svg viewBox="0 0 86.61887999999999 40.55487078590342" height="40.55487078590342" width="86.61887999999999"><g><svg xmlns="http://www.w3.org/2000/svg" xmlns:xlink="http://www.w3.org/1999/xlink" xml:space="preserve" style="shape-rendering:geometricPrecision;text-rendering:geometricPrecision;image-rendering:optimizeQuality;" viewBox="0.00005081202834844589 0.00006598234176635742 65.4085464477539 37.56269073486328" x="8" y="0" fill-rule="evenodd" clip-rule="evenodd" width="70.61887999999999" height="40.55487078590342" class="icon-icon-0" data-fill-palette-color="accent" id="icon-0"><g fill="#1c222f" data-fill-palette-color="accent"><path class="" d="M2.847 3.071c0.092 0.554 0.181 1.112 0.263 1.672 0.644 4.357 0.929 8.884-0.487 13.044-1.268 3.722-2.427 7.315-2.199 11.226-0.036 0.811-0.289 1.237-0.346 2.074-0.035 0.507-0.056 1.004-0.069 1.404-0.034 1.066 0.025 1.354 0.206 2.153 0.077 0.346 0.226 0.477 0.447 0.595 2.316 1.301 7.567 1.889 11.119 1.742 0.863-0.036 1.625-0.067 2.2-0.071 0.007 0 0.015 0 0.023 0 2.856-0.106 6.939-0.168 10.881-0.137 3.223 0.026 6.359 0.115 8.659 0.294l0 0c2.422 0.245 4.323 0.379 6.212 0.444 1.882 0.065 3.75 0.061 6.112 0.029 3.196 0.039 6.859-0.46 10.159-1.168 3.737-0.801 7.03-1.875 8.669-2.741 0.473-0.233 0.563-0.567 0.625-0.907 0.082-0.722 0.119-1.48 0.055-2.31-0.065-0.852-0.236-1.778-0.571-2.818-0.101-0.298-0.294-0.726-0.725-1.021-2.321-1.673-5.456-1.304-8.159-1.264-0.458 0.012-0.977 0.069-1.473 0.087l-0.006-0.009c-0.095 0.004-0.191 0.007-0.286 0.01-0.452-0.095-1.415-0.314-2.232-0.5-0.749-0.171-1.19 0.55-1.318 1.236-0.005 0.044-0.013 0.087-0.021 0.131-0.155 0.753-0.857 1.267-1.642 1.153-0.786-0.113-1.317-0.856-1.215-1.658 0.12-0.948-0.048-1.94-1.513-2.426-0.44-0.146-0.833-0.309-1.226-0.479-1.21-0.52-1.981-0.324-2.694 1.401-0.017 0.041-0.036 0.08-0.055 0.12-0.351 0.684-1.166 0.99-1.893 0.669-0.726-0.32-1.087-1.196-0.748-1.93 0.593-1.285 0.932-2.294-0.522-3.114-0.325-0.184-0.621-0.391-0.928-0.575-1.057-0.634-1.886-1.191-3.216 0.324l-0.601 0.741c-0.027 0.035-0.056 0.068-0.085 0.101-0.522 0.565-1.4 0.632-2.003 0.138-0.625-0.512-0.717-1.435-0.204-2.06 0.161-0.196 0.32-0.395 0.483-0.59 0.789-0.947 1.364-2.084-0.328-3.697-1.139-1.086-1.879-1.567-3.77 0.002l-0.628 0.528c-0.033 0.029-0.068 0.056-0.103 0.083-0.619 0.456-1.494 0.355-1.993-0.244-0.517-0.622-0.432-1.545 0.191-2.062 0.321-0.267 0.632-0.547 0.962-0.801 1.967-1.517 0.894-2.75 0.123-3.596-0.904-0.992-1.552-1.802-3.56-0.289l-0.746 0.603c-0.034 0.029-0.069 0.055-0.105 0.082-0.628 0.444-1.501 0.327-1.987-0.282-0.505-0.631-0.403-1.552 0.228-2.057 0.449-0.359 0.877-0.745 1.345-1.08 1.523-1.091 0.226-3.505-0.641-4.524-0.811-0.953-1.308-0.887-2.371-0.398-0.838 0.386-1.881 1.2-2.447 2.129-2.066 2.986-5.124-0.215-8.107-0.631-1.743-0.243-6.72-1.562-5.739 1.224z m-0.779 27.158c1.691 0.316 4.381 1.662 8.618 1.572 6.634-0.14 13.799-1.071 21.034-0.1 11.462 1.537 18.055 0.866 23.468-1.579 0.535-0.079 0.855-0.952 0.742-1.361-0.21-0.79-0.511-1.614-0.83-2.238-0.057-0.364 0.415-0.349 0.892-0.369 3.682-0.101 5.569-0.219 7.315 0.946 0.402 0.268 0.566 0.474 0.671 0.813 0.292 0.943 0.449 1.783 0.508 2.557 0.151 1.974-0.131 2.416-1.614 3.01-1.706 0.683-4.172 1.41-7 2.016-3.26 0.699-6.868 1.192-10.001 1.153l-0.008 0-0.002 0c-2.349 0.032-4.207-0.105-6.082-0.17-5.036-0.174-9.662-0.554-14.888-0.596-4.339-0.035-8.816 0.03-13.139 0.208-2.972 0.122-6.918-0.277-9.339-1.089-1.148-0.385-1.222-0.459-1.3-1.604-0.063-0.924-0.068-2.318 0.166-2.732 0.217-0.385 0.557-0.449 0.789-0.437z m11.573-20.256c-3.652 0-6.612 2.96-6.611 6.612 0 3.652 2.96 6.612 6.611 6.612 3.652 0 6.612-2.96 6.612-6.612 0-3.652-2.96-6.612-6.612-6.612z" fill="#1c222f" data-fill-palette-color="accent"></path></g></svg></g></svg></g></svg></g></svg></g></svg></g><defs></defs><mask id="4d5fa076-302b-4a9d-933d-c291e0644436"><g id="SvgjsG1340"><svg viewBox="0 0 320 360" height="360" width="320"><g><svg></svg></g><g><svg viewBox="0 0 320 360" height="360" width="320"><g><path xmlns="http://www.w3.org/2000/svg" d="M320 187.111c0-45.764-20.238-86.866-52.203-114.908-28.043-31.964-69.145-52.203-114.908-52.203-84.302 0-152.889 68.587-152.889 152.889 0 45.753 20.231 86.848 52.185 114.891 28.043 31.975 69.152 52.22 114.926 52.22 0.299 0 0.59-0.021 0.889-0.021 0.299 0 0.59 0.021 0.889 0.021 83.456 0 151.111-67.655 151.111-151.111 0-0.299-0.021-0.59-0.021-0.889 0-0.299 0.021-0.59 0.021-0.889zM59.833 263.097c-15.093-21.255-24.071-47.143-24.256-75.097 0.48-72.928 59.492-131.943 132.423-132.423 27.954 0.185 53.845 9.163 75.097 24.256 24.366 23.627 39.57 56.64 39.57 93.056 0 71.559-58.219 129.778-129.778 129.778-36.416 0-69.429-15.204-93.056-39.57zM3.556 172.889c0-82.343 66.99-149.333 149.333-149.333 35.051 0 67.292 12.167 92.8 32.462-22.98-13.824-49.863-21.796-78.578-21.796-84.302 0-152.889 68.587-152.889 152.889 0 28.708 7.968 55.584 21.785 78.56-20.288-25.5-32.452-57.739-32.451-92.782zM167.111 318.667c-35.84 0-68.363-14.418-92.107-37.743 21.952 15.89 48.864 25.298 77.885 25.298 73.522 0 133.333-59.812 133.333-133.333 0-29.02-9.408-55.932-25.298-77.885 23.324 23.744 37.742 56.267 37.743 92.107 0 72.54-59.015 131.556-131.556 131.556z" fill="white" fill-rule="nonzero" stroke="none" stroke-width="1" stroke-linecap="butt" stroke-linejoin="miter" stroke-miterlimit="10" stroke-dasharray="" stroke-dashoffset="0" font-family="none" font-weight="none" font-size="none" text-anchor="none" style="mix-blend-mode: normal"></path></g><g transform="matrix(1,0,0,1,64,160.79562906315712)"><svg viewBox="0 0 192 38.40874187368574" height="38.40874187368574" width="192"><g><svg viewBox="0 0 287.52016971966225 57.51712490750428" height="38.40874187368574" width="192"><g transform="matrix(1,0,0,1,95.52016971966223,0)"><svg viewBox="0 0 192 57.51712490750428" height="57.51712490750428" width="192"><g id="SvgjsG1339"><svg viewBox="0 0 192 57.51712490750428" height="57.51712490750428" width="192" id="SvgjsSvg1338"><g><svg viewBox="0 0 192 37.70518697225573" height="37.70518697225573" width="192"><g transform="matrix(1,0,0,1,0,0)"><svg width="192" viewBox="0.45000001788139343 -38.75 207.22999572753906 40.70000076293945" height="37.70518697225573" data-palette-color="#461d66"><path d="M24.35-26.35Q24.1-27.15 22.43-27.78 20.75-28.4 18.05-28.4L18.05-28.4Q15.1-28.4 13.45-26.75 11.8-25.1 11.8-22.6L11.8-22.6Q11.8-21.05 12.93-20.23 14.05-19.4 16.4-18.4L16.4-18.4 18.2-17.65 19.7-16.95Q22.4-15.75 23.98-14.78 25.55-13.8 26.65-12.1 27.75-10.4 27.75-7.75L27.75-7.75Q27.75-4.9 25.88-2.83 24-0.75 20.65 0.33 17.3 1.4 12.85 1.4L12.85 1.4Q9.55 1.4 6.68 0.38 3.8-0.65 2.13-2.2 0.45-3.75 0.45-5.25L0.45-5.25Q0.45-6.7 1.7-7.63 2.95-8.55 5.25-8.9L5.25-8.9Q5.5-7.45 6.95-6.3 8.4-5.15 10.33-4.48 12.25-3.8 13.7-3.8L13.7-3.8Q16.35-3.8 18.43-4.85 20.5-5.9 20.5-7.75L20.5-7.75Q20.5-9.3 19.03-10.33 17.55-11.35 14.6-12.55L14.6-12.55 11.95-13.75Q8.7-15.35 6.8-17.35 4.9-19.35 4.9-22.65L4.9-22.65Q4.9-26.3 6.95-28.58 9-30.85 11.93-31.85 14.85-32.85 17.65-32.85L17.65-32.85Q22.1-32.85 24.98-31.7 27.85-30.55 29.15-28.8 30.45-27.05 30.45-25.2L30.45-25.2Q30.45-24.15 29.93-22.65 29.4-21.15 28.38-20.05 27.35-18.95 25.9-18.95L25.9-18.95Q23.4-18.95 23.4-21.55L23.4-21.55Q23.5-22.35 23.85-24.18 24.2-26 24.35-26.35L24.35-26.35ZM40.05-16.5Q41.2-18.75 43.22-20.35 45.25-21.95 47.35-22.8 49.45-23.65 50.8-23.65L50.8-23.65Q53.4-23.65 54.55-22.68 55.7-21.7 55.7-19.6L55.7-19.6Q52.75-11.9 51.8-3L51.8-3 52.5-0.55Q51.9 0.6 50.9 1.28 49.9 1.95 47.85 1.95L47.85 1.95Q46.65 1.95 46.1 1.15 45.55 0.35 45.55-0.85L45.55-0.85Q45.55-4.2 46.52-8.22 47.5-12.25 48.8-16.45L48.8-16.45Q49.3-18.05 49.3-18.1L49.3-18.1Q49.3-18.8 48.5-18.8L48.5-18.8Q47.45-18.8 45.45-17.25 43.45-15.7 41.3-12.03 39.15-8.35 37.7-2.4L37.7-2.4Q37.65-2.15 37.45-1.35 37.25-0.55 36.55-0.2 35.85 0.15 34.4 0.15L34.4 0.15Q32.65 0.15 31.7-0.23 30.75-0.6 30.75-1.7L30.75-1.7Q37.3-27.45 38.85-33.9L38.85-33.9Q38.8-34.55 38.77-35.63 38.75-36.7 38.75-37.3L38.75-37.3Q38.9-38 39.82-38.38 40.75-38.75 41.7-38.75L41.7-38.75Q43.3-38.75 44.4-37.9 45.5-37.05 45.6-35.75L45.6-35.75 40.05-16.5ZM68.2 1.05Q63.8 1.05 61.35-1.95 58.9-4.95 58.9-9.6L58.9-9.6Q58.9-13.5 60.77-16.95 62.65-20.4 65.9-22.5 69.15-24.6 73.05-24.6L73.05-24.6Q76.9-24.6 79.37-22.08 81.84-19.55 81.84-14.65L81.84-14.65Q81.84-11.2 79.95-7.5 78.05-3.8 74.87-1.38 71.7 1.05 68.2 1.05L68.2 1.05ZM68.95-2.95Q70.55-2.95 72.17-4.95 73.8-6.95 74.84-10 75.9-13.05 75.9-15.95L75.9-15.95Q75.9-20.4 72.2-20.4L72.2-20.4Q70.15-20.4 68.45-18.45 66.75-16.5 65.75-13.63 64.75-10.75 64.75-8.25L64.75-8.25Q64.75-6.8 65.4-5.58 66.05-4.35 67.02-3.65 68-2.95 68.95-2.95L68.95-2.95ZM93.09 1.05Q88.19 1.05 85.94-0.9 83.69-2.85 83.69-6.1L83.69-6.1Q83.69-10.85 86.07-14.9 88.44-18.95 92.42-21.33 96.39-23.7 100.99-23.7L100.99-23.7Q103.79-23.7 105.69-22.13 107.59-20.55 107.59-17.5L107.59-17.5Q107.59-15.75 106.47-14.63 105.34-13.5 103.24-12.63 101.14-11.75 96.44-10.15L96.44-10.15Q92.19-8.75 89.54-7.8L89.54-7.8Q89.34-7.05 89.34-6.25L89.34-6.25Q89.34-4.85 90.52-4.1 91.69-3.35 93.84-3.35L93.84-3.35Q95.19-3.35 96.94-3.9 98.69-4.45 99.14-5.3L99.14-5.3Q100.84-8.4 102.24-8.4L102.24-8.4Q104.29-8.4 105.02-7.63 105.74-6.85 105.79-5.9L105.79-5.9Q105.19-4.3 103.44-2.68 101.69-1.05 98.99 0 96.29 1.05 93.09 1.05L93.09 1.05ZM90.94-12.4Q95.89-14 99.09-15.38 102.29-16.75 102.29-18.1L102.29-18.1Q102.29-18.7 101.64-19.07 100.99-19.45 100.24-19.45L100.24-19.45Q98.74-19.45 96.82-18.3 94.89-17.15 93.24-15.5 91.59-13.85 90.94-12.4L90.94-12.4ZM112.84-22.85Q112.69-23 112.69-23.2L112.69-23.2Q112.69-23.7 113.79-24.03 114.89-24.35 116.84-24.35L116.84-24.35Q118.64-24.35 119.49-23.43 120.34-22.5 120.49-21.2L120.49-21.2 119.59-17.95Q120.64-19.4 122.54-20.73 124.44-22.05 126.39-22.85 128.34-23.65 129.59-23.65L129.59-23.65Q132.24-23.65 133.44-22.68 134.64-21.7 134.64-19.6L134.64-19.6Q131.69-11.9 130.74-3L130.74-3 131.44-0.55Q130.84 0.6 129.77 1.28 128.69 1.95 126.64 1.95L126.64 1.95Q125.44 1.95 124.89 1.15 124.34 0.35 124.34-0.85L124.34-0.85Q124.34-4.2 125.32-8.22 126.29-12.25 127.59-16.45L127.59-16.45Q128.09-18.05 128.09-18.1L128.09-18.1Q128.09-18.8 127.29-18.8L127.29-18.8Q126.19-18.8 123.97-17.25 121.74-15.7 119.39-12.03 117.04-8.35 115.59-2.4L115.59-2.4Q115.49-2.1 115.34-1.3 115.19-0.5 114.54-0.18 113.89 0.15 112.44 0.15L112.44 0.15Q110.79 0.15 110.02-0.2 109.24-0.55 109.24-1.7L109.24-1.7Q109.39-2.4 109.69-3.4L109.69-3.4Q112.59-15.05 114.14-21.35L114.14-21.35 112.84-22.85ZM145.74 1.05Q140.84 1.05 138.59-0.9 136.34-2.85 136.34-6.1L136.34-6.1Q136.34-10.85 138.71-14.9 141.09-18.95 145.06-21.33 149.04-23.7 153.64-23.7L153.64-23.7Q156.44-23.7 158.34-22.13 160.24-20.55 160.24-17.5L160.24-17.5Q160.24-15.75 159.11-14.63 157.99-13.5 155.89-12.63 153.79-11.75 149.09-10.15L149.09-10.15Q144.84-8.75 142.19-7.8L142.19-7.8Q141.99-7.05 141.99-6.25L141.99-6.25Q141.99-4.85 143.16-4.1 144.34-3.35 146.49-3.35L146.49-3.35Q147.84-3.35 149.59-3.9 151.34-4.45 151.79-5.3L151.79-5.3Q153.49-8.4 154.89-8.4L154.89-8.4Q156.94-8.4 157.66-7.63 158.39-6.85 158.44-5.9L158.44-5.9Q157.84-4.3 156.09-2.68 154.34-1.05 151.64 0 148.94 1.05 145.74 1.05L145.74 1.05ZM143.59-12.4Q148.54-14 151.74-15.38 154.94-16.75 154.94-18.1L154.94-18.1Q154.94-18.7 154.29-19.07 153.64-19.45 152.89-19.45L152.89-19.45Q151.39-19.45 149.46-18.3 147.54-17.15 145.89-15.5 144.24-13.85 143.59-12.4L143.59-12.4ZM183.89-24.5Q185.49-24.5 185.94-23.75 186.39-23 186.39-21.9L186.39-21.9Q186.39-21.15 186.19-20.88 185.99-20.6 185.39-20.25L185.39-20.25Q184.49-19.65 183.74-19.05L183.74-19.05Q182.74-18.15 176.79-11.45L176.79-11.45Q179.04-7.4 181.04-4.15L181.04-4.15Q181.99-2.65 181.99-1.4L181.99-1.4Q181.99-0.7 181.24-0.15L181.24-0.15Q180.64 0.3 179.54 0.3L179.54 0.3Q178.44 0.3 176.69-1.75L176.69-1.75Q175.19-3.6 172.99-7.2L172.99-7.2Q167.09-0.55 165.74 0.4L165.74 0.4Q164.89 1 163.79 1L163.79 1Q163.14 1 162.34 0.23 161.54-0.55 161.54-1.25L161.54-1.25Q161.54-1.7 161.59-1.95L161.59-1.95 162.59-2.85Q163.49-3.65 170.54-11.55L170.54-11.55Q168.94-14.65 167.94-17.32 166.94-20 166.94-21.6L166.94-21.6Q166.94-23.05 167.84-23.55 168.74-24.05 170.49-24.05L170.49-24.05Q171.34-24.05 172.19-23.63 173.04-23.2 173.04-22.5L173.04-22.5 172.99-21.75Q172.99-19.6 174.49-16.15L174.49-16.15Q177.94-20.2 180.31-22.35 182.69-24.5 183.89-24.5L183.89-24.5ZM198.38-18.1L195.23-5.5Q195.23-4.35 195.83-3.68 196.43-3 197.53-3L197.53-3Q199.03-3 200.01-3.88 200.98-4.75 202.08-6.35L202.08-6.35Q202.88-7.5 203.38-8 203.88-8.5 204.53-8.5L204.53-8.5Q205.83-8.5 206.38-8.18 206.93-7.85 206.93-6.85L206.93-6.85Q206.93-6.4 206.83-5.78 206.73-5.15 206.58-4.85L206.58-4.85Q205.38-2.3 202.66-0.45 199.93 1.4 196.48 1.4L196.48 1.4Q193.03 1.4 191.28-0.28 189.53-1.95 189.53-5.05L189.53-5.05Q189.53-5.5 189.98-7.4 190.43-9.3 191.13-11.95L191.13-11.95 192.53-17.65 189.48-17.4Q188.88-17.4 188.58-17.85 188.28-18.3 188.28-18.95L188.28-18.95Q188.28-20.2 189.18-21.45L189.18-21.45Q189.28-21.6 190.18-21.75 191.08-21.9 192.38-22.05L192.38-22.05 193.73-22.2 195.43-29.5Q195.93-30.8 196.96-31.53 197.98-32.25 198.88-32.25L198.88-32.25Q199.88-32.25 200.58-31.65 201.28-31.05 201.33-30.25L201.33-30.25 199.53-22.75Q201.48-23 203.16-23.18 204.83-23.35 205.78-23.35L205.78-23.35Q207.68-23.35 207.68-21.15L207.68-21.15Q207.68-20.3 206.96-19.63 206.23-18.95 205.38-18.8L205.38-18.8 198.38-18.1Z" opacity="1" transform="matrix(1,0,0,1,0,0)" fill="black" class="wordmark-text-0" id="SvgjsPath1337"></path></svg></g></svg></g><g transform="matrix(1,0,0,1,36.672,46.606476691917976)"><svg viewBox="0 0 118.656 10.910648215586308" height="10.910648215586308" width="118.656"><g transform="matrix(1,0,0,1,0,0)"><svg width="118.656" viewBox="2.9000000953674316 -37.75 549.1499633789062 50.5" height="10.910648215586308" data-palette-color="#8c8c8c"><path d="M24.2-24.4L22.4-24.4Q22.25-26.8 21.25-28.95 20.25-31.1 18.35-32.45 16.45-33.8 13.5-33.8L13.5-33.8Q10.4-33.8 8.75-32.05 7.1-30.3 7.1-27.95L7.1-27.95Q7.1-25.85 8.3-24.43 9.5-23 11.43-21.93 13.35-20.85 15.5-19.85L15.5-19.85Q17.4-19 19.3-18.03 21.2-17.05 22.75-15.8 24.3-14.55 25.23-12.83 26.15-11.1 26.15-8.7L26.15-8.7Q26.15-5.95 24.78-3.8 23.4-1.65 20.8-0.43 18.2 0.8 14.45 0.8L14.45 0.8Q12.2 0.8 9.8 0.15 7.4-0.5 5.55-1.75L5.55-1.75 5.8 0.4 3.2 0.4 2.9-10.25 4.85-10.25Q5.1-5.85 7.9-3.58 10.7-1.3 14.65-1.3L14.65-1.3Q16.6-1.3 18.25-2.02 19.9-2.75 20.88-4.15 21.85-5.55 21.85-7.55L21.85-7.55Q21.85-9.8 20.65-11.3 19.45-12.8 17.55-13.9 15.65-15 13.5-16L13.5-16Q11.6-16.85 9.75-17.8 7.9-18.75 6.38-19.98 4.85-21.2 3.93-22.9 3-24.6 3-27L3-27Q3-28.3 3.45-29.8 3.9-31.3 5.03-32.68 6.15-34.05 8.13-34.93 10.1-35.8 13.15-35.8L13.15-35.8Q15.05-35.8 17.43-35.27 19.8-34.75 21.85-33.25L21.85-33.25 21.65-35.4 24.2-35.4 24.2-24.4ZM46.6 0L46.6-1.5Q48.15-1.5 48.75-2.27 49.35-3.05 49.45-4.42 49.55-5.8 49.55-7.6L49.55-7.6 49.55-14.6Q49.55-18.9 48.17-21.05 46.8-23.2 43.85-23.15L43.85-23.15Q42-23.1 40.22-22.25 38.45-21.4 37.35-20.05L37.35-20.05 37.35-5.3Q37.35-4.3 37.3-3.53 37.25-2.75 37.1-1.9L37.1-1.9Q37.9-1.95 38.67-1.98 39.45-2 40.25-2.05L40.25-2.05 40.25 0 30.05 0 30.05-1.5Q31.6-1.5 32.2-2.27 32.8-3.05 32.92-4.42 33.05-5.8 33.05-7.6L33.05-7.6 33.05-31.25Q33.05-32.05 33.07-32.77 33.1-33.5 33.2-34.5L33.2-34.5Q32.3-34.45 31.42-34.4 30.55-34.35 29.65-34.3L29.65-34.3 29.65-36.4Q31.85-36.4 33.07-36.6 34.3-36.8 34.92-37.1 35.55-37.4 35.9-37.75L35.9-37.75 37.35-37.75 37.35-22.5Q38.45-23.45 39.82-24.18 41.2-24.9 42.67-25.35 44.15-25.8 45.55-25.8L45.55-25.8Q49.9-25.8 51.82-23.08 53.75-20.35 53.8-14.6L53.8-14.6 53.85-5.3Q53.85-4.3 53.82-3.53 53.8-2.75 53.65-1.9L53.65-1.9Q54.45-1.95 55.22-1.98 56-2 56.8-2.05L56.8-2.05 56.8 0 46.6 0ZM72.9 0.8L72.9 0.8Q69.4 0.8 66.55-0.83 63.7-2.45 62.02-5.33 60.34-8.2 60.34-11.9L60.34-11.9Q60.34-15.85 62-19 63.65-22.15 66.5-23.98 69.34-25.8 72.9-25.8L72.9-25.8Q76.4-25.8 79.25-24.13 82.09-22.45 83.8-19.6 85.5-16.75 85.5-13.1L85.5-13.1Q85.5-9.25 83.82-6.08 82.15-2.9 79.3-1.05 76.45 0.8 72.9 0.8ZM73.3-1.2L73.3-1.2Q75.95-1.2 77.5-2.7 79.05-4.2 79.72-6.6 80.4-9 80.4-11.65L80.4-11.65Q80.4-13.9 79.97-16.07 79.55-18.25 78.65-20.03 77.75-21.8 76.32-22.85 74.9-23.9 72.9-23.9L72.9-23.9Q70.3-23.9 68.65-22.4 67-20.9 66.22-18.5 65.45-16.1 65.45-13.35L65.45-13.35Q65.45-10.25 66.3-7.48 67.14-4.7 68.9-2.95 70.65-1.2 73.3-1.2ZM101.84 0.8L101.84 0.8Q98.39 0.8 95.62-0.83 92.84-2.45 91.24-5.43 89.64-8.4 89.64-12.45L89.64-12.45Q89.64-15.95 91.22-19 92.79-22.05 95.64-23.93 98.49-25.8 102.24-25.8L102.24-25.8Q104.34-25.8 106.17-25.13 107.99-24.45 109.39-23.08 110.79-21.7 111.59-19.63 112.39-17.55 112.39-14.75L112.39-14.75 94.79-14.45Q94.79-10.65 95.62-7.78 96.44-4.9 98.29-3.33 100.14-1.75 103.04-1.75L103.04-1.75Q104.59-1.75 106.22-2.3 107.84-2.85 109.24-3.8 110.64-4.75 111.49-5.9L111.49-5.9 112.69-4.9Q111.34-2.8 109.44-1.55 107.54-0.3 105.54 0.25 103.54 0.8 101.84 0.8ZM94.94-16.55L94.94-16.55 107.69-16.55Q107.69-18.35 107.17-20.03 106.64-21.7 105.44-22.78 104.24-23.85 102.29-23.85L102.29-23.85Q99.39-23.85 97.47-22.13 95.54-20.4 94.94-16.55ZM127.09 0.8L127.09 0.8Q124.59 0.8 122.64 0.13 120.69-0.55 119.44-1.4L119.44-1.4 119.64 0.35 117.54 0.35 117.24-8.25 118.79-8.25Q118.89-6.2 119.94-4.58 120.99-2.95 122.64-2.05 124.29-1.15 126.19-1.15L126.19-1.15Q127.49-1.15 128.74-1.58 129.99-2 130.84-2.88 131.69-3.75 131.69-5.1L131.69-5.1Q131.69-6.5 130.87-7.43 130.04-8.35 128.69-9.05 127.34-9.75 125.79-10.35L125.79-10.35Q124.29-10.95 122.79-11.6 121.29-12.25 120.02-13.15 118.74-14.05 117.99-15.35 117.24-16.65 117.24-18.55L117.24-18.55Q117.24-19.6 117.64-20.85 118.04-22.1 118.99-23.23 119.94-24.35 121.59-25.08 123.24-25.8 125.79-25.8L125.79-25.8Q127.14-25.8 128.79-25.35 130.44-24.9 131.99-23.65L131.99-23.65 131.89-25.55 133.99-25.55 133.99-16.8 132.39-16.8Q132.29-18.55 131.59-20.18 130.89-21.8 129.54-22.88 128.19-23.95 126.04-23.95L126.04-23.95Q123.74-23.95 122.44-22.8 121.14-21.65 121.14-20.15L121.14-20.15Q121.14-18.6 122.12-17.57 123.09-16.55 124.64-15.8 126.19-15.05 127.94-14.35L127.94-14.35Q129.84-13.55 131.64-12.6 133.44-11.65 134.59-10.23 135.74-8.8 135.74-6.55L135.74-6.55Q135.74-4.05 134.47-2.4 133.19-0.75 131.22 0.03 129.24 0.8 127.09 0.8ZM156.04 0L156.04-1.5Q157.59-1.5 158.19-2.27 158.79-3.05 158.89-4.42 158.99-5.8 158.99-7.6L158.99-7.6 158.99-14.6Q158.99-18.9 157.61-21.05 156.24-23.2 153.29-23.15L153.29-23.15Q151.44-23.1 149.66-22.25 147.89-21.4 146.79-20.05L146.79-20.05 146.79-5.3Q146.79-4.3 146.74-3.53 146.69-2.75 146.54-1.9L146.54-1.9Q147.34-1.95 148.11-1.98 148.89-2 149.69-2.05L149.69-2.05 149.69 0 139.49 0 139.49-1.5Q141.04-1.5 141.64-2.27 142.24-3.05 142.36-4.42 142.49-5.8 142.49-7.6L142.49-7.6 142.49-31.25Q142.49-32.05 142.51-32.77 142.54-33.5 142.64-34.5L142.64-34.5Q141.74-34.45 140.86-34.4 139.99-34.35 139.09-34.3L139.09-34.3 139.09-36.4Q141.29-36.4 142.51-36.6 143.74-36.8 144.36-37.1 144.99-37.4 145.34-37.75L145.34-37.75 146.79-37.75 146.79-22.5Q147.89-23.45 149.26-24.18 150.64-24.9 152.11-25.35 153.59-25.8 154.99-25.8L154.99-25.8Q159.34-25.8 161.26-23.08 163.19-20.35 163.24-14.6L163.24-14.6 163.29-5.3Q163.29-4.3 163.26-3.53 163.24-2.75 163.09-1.9L163.09-1.9Q163.89-1.95 164.66-1.98 165.44-2 166.24-2.05L166.24-2.05 166.24 0 156.04 0ZM182.34 0.8L182.34 0.8Q178.84 0.8 175.99-0.83 173.14-2.45 171.46-5.33 169.79-8.2 169.79-11.9L169.79-11.9Q169.79-15.85 171.44-19 173.09-22.15 175.94-23.98 178.79-25.8 182.34-25.8L182.34-25.8Q185.84-25.8 188.69-24.13 191.54-22.45 193.24-19.6 194.94-16.75 194.94-13.1L194.94-13.1Q194.94-9.25 193.26-6.08 191.59-2.9 188.74-1.05 185.89 0.8 182.34 0.8ZM182.74-1.2L182.74-1.2Q185.39-1.2 186.94-2.7 188.49-4.2 189.16-6.6 189.84-9 189.84-11.65L189.84-11.65Q189.84-13.9 189.41-16.07 188.99-18.25 188.09-20.03 187.19-21.8 185.76-22.85 184.34-23.9 182.34-23.9L182.34-23.9Q179.74-23.9 178.09-22.4 176.44-20.9 175.66-18.5 174.89-16.1 174.89-13.35L174.89-13.35Q174.89-10.25 175.74-7.48 176.59-4.7 178.34-2.95 180.09-1.2 182.74-1.2ZM208.93 12.75L198.73 12.75 198.73 11.25Q200.28 11.25 200.88 10.48 201.48 9.7 201.58 8.33 201.68 6.95 201.68 5.15L201.68 5.15 201.78-19Q201.78-19.8 201.81-20.6 201.83-21.4 201.98-22.25L201.98-22.25Q201.08-22.2 200.21-22.15 199.33-22.1 198.43-22.05L198.43-22.05 198.43-24.15Q200.63-24.15 201.76-24.35 202.88-24.55 203.41-24.85 203.93-25.15 204.28-25.5L204.28-25.5 205.78-25.5Q205.83-25 205.88-24.33 205.93-23.65 205.98-22.8L205.98-22.8Q207.48-24.15 209.56-24.98 211.63-25.8 213.73-25.8L213.73-25.8Q216.63-25.8 219.13-24.3 221.63-22.8 223.18-20.03 224.73-17.25 224.73-13.4L224.73-13.4Q224.73-9.15 222.96-5.95 221.18-2.75 218.28-0.98 215.38 0.8 211.98 0.8L211.98 0.8Q210.23 0.8 208.76 0.38 207.28-0.05 205.98-0.85L205.98-0.85 205.98 7.45Q205.98 8.45 205.96 9.22 205.93 10 205.78 10.85L205.78 10.85Q206.58 10.8 207.36 10.78 208.13 10.75 208.93 10.7L208.93 10.7 208.93 12.75ZM211.88-1.2L211.88-1.2Q214.28-1.2 216.01-2.68 217.73-4.15 218.66-6.73 219.58-9.3 219.58-12.6L219.58-12.6Q219.58-15.3 218.81-17.78 218.03-20.25 216.36-21.8 214.68-23.35 211.93-23.35L211.93-23.35Q210.23-23.35 208.66-22.53 207.08-21.7 206.03-20.55L206.03-20.55Q206.03-20.35 206.06-19.98 206.08-19.6 206.08-18.68 206.08-17.75 206.08-15.93 206.08-14.1 206.06-11 206.03-7.9 206.03-3.15L206.03-3.15Q207.28-2.2 208.76-1.7 210.23-1.2 211.88-1.2ZM232.73 8.95L232.73 8.95 231.38 7.95Q231.93 7.25 232.53 5.95 233.13 4.65 233.51 3.08 233.88 1.5 233.68 0L233.68 0Q233.33 0.15 233.03 0.23 232.73 0.3 232.43 0.3L232.43 0.3Q231.48 0.3 230.81-0.4 230.13-1.1 230.13-2.15L230.13-2.15Q230.13-3.55 230.96-4.3 231.78-5.05 232.88-5.05L232.88-5.05Q234.63-5.05 235.53-3.73 236.43-2.4 236.43-0.5L236.43-0.5Q236.43 0.75 235.96 2.55 235.48 4.35 234.66 6.08 233.83 7.8 232.73 8.95ZM274.43-12.95L272.78-12.95Q272.78-15.15 272.18-16.1 271.58-17.05 270.28-17.25 268.98-17.45 266.83-17.35L266.83-17.35 263.18-17.2 263.18-5.75Q263.18-4.4 263.15-3.45 263.13-2.5 263.03-1.85L263.03-1.85 272.58-2Q274.78-2.05 276.38-2.73 277.98-3.4 278.88-5.1 279.78-6.8 279.78-9.75L279.78-9.75 281.48-9.75 281.18 0 255.38 0 255.38-1.65Q257.28-1.75 257.98-2.53 258.68-3.3 258.75-4.67 258.83-6.05 258.83-7.8L258.83-7.8 258.83-29.4Q258.83-30.4 258.88-31.33 258.93-32.25 258.98-33L258.98-33Q258.08-32.95 257.18-32.9 256.28-32.85 255.38-32.8L255.38-32.8 255.38-35 279.43-35 279.68-26.25 278.03-26.25Q278.03-29.2 277.13-30.73 276.23-32.25 274.7-32.77 273.18-33.3 271.28-33.25L271.28-33.25 266.98-33.15Q265.13-33.1 264.33-32.45 263.53-31.8 263.35-30.53 263.18-29.25 263.18-27.2L263.18-27.2 263.18-19.2 272.58-19.15 272.23-23.45 274.43-23.45 274.43-12.95ZM303.82-14.45L286.07-14.25 286.07-17.75 303.82-17.75 303.82-14.45ZM321.57 0.8L321.57 0.8Q318.22 0.8 315.4-0.73 312.57-2.25 310.9-5.13 309.22-8 309.22-12.05L309.22-12.05Q309.22-14.65 310.17-17.1 311.12-19.55 312.85-21.53 314.57-23.5 316.97-24.65 319.37-25.8 322.27-25.8L322.27-25.8Q325.07-25.8 327.15-24.95 329.22-24.1 330.37-22.7 331.52-21.3 331.52-19.65L331.52-19.65Q331.52-18.55 330.92-17.78 330.32-17 329.17-17L329.17-17Q327.92-16.95 327.4-17.78 326.87-18.6 326.87-19.25L326.87-19.25Q326.87-19.75 327.02-20.28 327.17-20.8 327.62-21.25L327.62-21.25Q327.22-22.45 326.22-23.03 325.22-23.6 324.15-23.78 323.07-23.95 322.37-23.95L322.37-23.95Q318.97-23.95 316.65-21.23 314.32-18.5 314.32-13.3L314.32-13.3Q314.32-9.95 315.4-7.35 316.47-4.75 318.42-3.28 320.37-1.8 322.92-1.8L322.92-1.8Q325.27-1.8 327.42-3.05 329.57-4.3 330.77-6.1L330.77-6.1 332.07-5.1Q330.77-3 328.94-1.7 327.12-0.4 325.19 0.2 323.27 0.8 321.57 0.8ZM348.12 0.8L348.12 0.8Q344.62 0.8 341.77-0.83 338.92-2.45 337.24-5.33 335.57-8.2 335.57-11.9L335.57-11.9Q335.57-15.85 337.22-19 338.87-22.15 341.72-23.98 344.57-25.8 348.12-25.8L348.12-25.8Q351.62-25.8 354.47-24.13 357.32-22.45 359.02-19.6 360.72-16.75 360.72-13.1L360.72-13.1Q360.72-9.25 359.04-6.08 357.37-2.9 354.52-1.05 351.67 0.8 348.12 0.8ZM348.52-1.2L348.52-1.2Q351.17-1.2 352.72-2.7 354.27-4.2 354.94-6.6 355.62-9 355.62-11.65L355.62-11.65Q355.62-13.9 355.19-16.07 354.77-18.25 353.87-20.03 352.97-21.8 351.54-22.85 350.12-23.9 348.12-23.9L348.12-23.9Q345.52-23.9 343.87-22.4 342.22-20.9 341.44-18.5 340.67-16.1 340.67-13.35L340.67-13.35Q340.67-10.25 341.52-7.48 342.37-4.7 344.12-2.95 345.87-1.2 348.52-1.2ZM375.17 0L364.97 0 364.97-1.5Q366.52-1.5 367.12-2.27 367.72-3.05 367.82-4.42 367.92-5.8 367.92-7.6L367.92-7.6 367.92-19Q367.92-19.8 367.94-20.6 367.97-21.4 368.12-22.25L368.12-22.25Q367.22-22.2 366.34-22.15 365.47-22.1 364.57-22.05L364.57-22.05 364.57-24.15Q366.77-24.15 367.89-24.35 369.02-24.55 369.57-24.85 370.12-25.15 370.47-25.5L370.47-25.5 371.92-25.5Q372.02-25 372.04-24.35 372.07-23.7 372.12-22.85L372.12-22.85Q373.62-24.15 375.57-24.98 377.52-25.8 379.47-25.8L379.47-25.8Q381.97-25.8 383.67-24.9 385.37-24 386.32-22.45L386.32-22.45Q388.02-23.85 390.24-24.83 392.47-25.8 394.62-25.8L394.62-25.8Q398.97-25.8 401.02-23.18 403.07-20.55 402.97-14.6L402.97-14.6 402.92-5.3Q402.92-4.3 402.89-3.53 402.87-2.75 402.72-1.9L402.72-1.9Q403.52-1.95 404.29-1.98 405.07-2 405.87-2.05L405.87-2.05 405.87 0 395.67 0 395.67-1.5Q397.22-1.5 397.82-2.27 398.42-3.05 398.52-4.42 398.62-5.8 398.62-7.6L398.62-7.6 398.62-14.6Q398.62-18.9 397.24-21.05 395.87-23.2 392.92-23.15L392.92-23.15Q391.37-23.15 389.82-22.45 388.27-21.75 387.12-20.7L387.12-20.7Q387.37-19.9 387.49-18.98 387.62-18.05 387.62-17.05L387.62-17.05Q387.57-14.15 387.57-11.2 387.57-8.25 387.52-5.3L387.52-5.3Q387.52-4.3 387.49-3.53 387.47-2.75 387.32-1.9L387.32-1.9Q388.12-1.95 388.89-1.98 389.67-2 390.47-2.05L390.47-2.05 390.47 0 380.27 0 380.27-1.5Q381.82-1.5 382.39-2.27 382.97-3.05 383.09-4.42 383.22-5.8 383.22-7.6L383.22-7.6 383.27-14.6Q383.32-18.9 382.02-21.1 380.72-23.3 377.77-23.25L377.77-23.25Q376.22-23.25 374.72-22.58 373.22-21.9 372.17-20.85L372.17-20.85Q372.17-20.25 372.19-19.58 372.22-18.9 372.22-18.15L372.22-18.15 372.22-5.3Q372.22-4.3 372.19-3.53 372.17-2.75 372.02-1.9L372.02-1.9Q372.82-1.95 373.59-1.98 374.37-2 375.17-2.05L375.17-2.05 375.17 0ZM419.86 0L409.66 0 409.66-1.5Q411.21-1.5 411.81-2.27 412.41-3.05 412.51-4.42 412.61-5.8 412.61-7.6L412.61-7.6 412.61-19Q412.61-19.8 412.64-20.6 412.66-21.4 412.81-22.25L412.81-22.25Q411.91-22.2 411.04-22.15 410.16-22.1 409.26-22.05L409.26-22.05 409.26-24.15Q411.46-24.15 412.59-24.35 413.71-24.55 414.26-24.85 414.81-25.15 415.16-25.5L415.16-25.5 416.61-25.5Q416.71-25 416.74-24.35 416.76-23.7 416.81-22.85L416.81-22.85Q418.31-24.15 420.26-24.98 422.21-25.8 424.16-25.8L424.16-25.8Q426.66-25.8 428.36-24.9 430.06-24 431.01-22.45L431.01-22.45Q432.71-23.85 434.94-24.83 437.16-25.8 439.31-25.8L439.31-25.8Q443.66-25.8 445.71-23.18 447.76-20.55 447.66-14.6L447.66-14.6 447.61-5.3Q447.61-4.3 447.59-3.53 447.56-2.75 447.41-1.9L447.41-1.9Q448.21-1.95 448.99-1.98 449.76-2 450.56-2.05L450.56-2.05 450.56 0 440.36 0 440.36-1.5Q441.91-1.5 442.51-2.27 443.11-3.05 443.21-4.42 443.31-5.8 443.31-7.6L443.31-7.6 443.31-14.6Q443.31-18.9 441.94-21.05 440.56-23.2 437.61-23.15L437.61-23.15Q436.06-23.15 434.51-22.45 432.96-21.75 431.81-20.7L431.81-20.7Q432.06-19.9 432.19-18.98 432.31-18.05 432.31-17.05L432.31-17.05Q432.26-14.15 432.26-11.2 432.26-8.25 432.21-5.3L432.21-5.3Q432.21-4.3 432.19-3.53 432.16-2.75 432.01-1.9L432.01-1.9Q432.81-1.95 433.59-1.98 434.36-2 435.16-2.05L435.16-2.05 435.16 0 424.96 0 424.96-1.5Q426.51-1.5 427.09-2.27 427.66-3.05 427.79-4.42 427.91-5.8 427.91-7.6L427.91-7.6 427.96-14.6Q428.01-18.9 426.71-21.1 425.41-23.3 422.46-23.25L422.46-23.25Q420.91-23.25 419.41-22.58 417.91-21.9 416.86-20.85L416.86-20.85Q416.86-20.25 416.89-19.58 416.91-18.9 416.91-18.15L416.91-18.15 416.91-5.3Q416.91-4.3 416.89-3.53 416.86-2.75 416.71-1.9L416.71-1.9Q417.51-1.95 418.29-1.98 419.06-2 419.86-2.05L419.86-2.05 419.86 0ZM466.46 0.8L466.46 0.8Q463.01 0.8 460.24-0.83 457.46-2.45 455.86-5.43 454.26-8.4 454.26-12.45L454.26-12.45Q454.26-15.95 455.84-19 457.41-22.05 460.26-23.93 463.11-25.8 466.86-25.8L466.86-25.8Q468.96-25.8 470.79-25.13 472.61-24.45 474.01-23.08 475.41-21.7 476.21-19.63 477.01-17.55 477.01-14.75L477.01-14.75 459.41-14.45Q459.41-10.65 460.24-7.78 461.06-4.9 462.91-3.33 464.76-1.75 467.66-1.75L467.66-1.75Q469.21-1.75 470.84-2.3 472.46-2.85 473.86-3.8 475.26-4.75 476.11-5.9L476.11-5.9 477.31-4.9Q475.96-2.8 474.06-1.55 472.16-0.3 470.16 0.25 468.16 0.8 466.46 0.8ZM459.56-16.55L459.56-16.55 472.31-16.55Q472.31-18.35 471.79-20.03 471.26-21.7 470.06-22.78 468.86-23.85 466.91-23.85L466.91-23.85Q464.01-23.85 462.09-22.13 460.16-20.4 459.56-16.55ZM481.46 0L481.46-1.5Q483.01-1.5 483.61-2.27 484.21-3.05 484.31-4.42 484.41-5.8 484.41-7.6L484.41-7.6 484.41-19Q484.41-19.8 484.43-20.6 484.46-21.4 484.61-22.25L484.61-22.25Q483.71-22.2 482.83-22.18 481.96-22.15 481.06-22.1L481.06-22.1 481.06-24.15 482.61-24.15Q484.76-24.15 485.58-24.58 486.41-25 486.96-25.5L486.96-25.5 488.41-25.5Q488.51-24.7 488.56-23.53 488.61-22.35 488.66-20.55L488.66-20.55Q489.41-21.8 490.71-23 492.01-24.2 493.63-25 495.26-25.8 497.06-25.8L497.06-25.8Q498.46-25.8 499.51-25.05 500.56-24.3 500.56-22.65L500.56-22.65Q500.56-22.25 500.31-21.68 500.06-21.1 499.51-20.68 498.96-20.25 498.06-20.25L498.06-20.25Q496.96-20.3 496.31-21.13 495.66-21.95 495.81-23.05L495.81-23.05Q494.56-23.1 493.23-22.4 491.91-21.7 490.76-20.48 489.61-19.25 488.71-17.6L488.71-17.6 488.76-5.3Q488.76-4.3 488.73-3.53 488.71-2.75 488.56-1.9L488.56-1.9Q489.36-1.95 490.13-1.98 490.91-2 491.71-2.05L491.71-2.05 491.71 0 481.46 0ZM514.96 0.8L514.96 0.8Q511.61 0.8 508.78-0.73 505.95-2.25 504.28-5.13 502.61-8 502.61-12.05L502.61-12.05Q502.61-14.65 503.56-17.1 504.5-19.55 506.23-21.53 507.95-23.5 510.36-24.65 512.75-25.8 515.65-25.8L515.65-25.8Q518.46-25.8 520.53-24.95 522.61-24.1 523.75-22.7 524.9-21.3 524.9-19.65L524.9-19.65Q524.9-18.55 524.31-17.78 523.71-17 522.56-17L522.56-17Q521.31-16.95 520.78-17.78 520.25-18.6 520.25-19.25L520.25-19.25Q520.25-19.75 520.4-20.28 520.56-20.8 521-21.25L521-21.25Q520.61-22.45 519.61-23.03 518.61-23.6 517.53-23.78 516.46-23.95 515.75-23.95L515.75-23.95Q512.36-23.95 510.03-21.23 507.7-18.5 507.7-13.3L507.7-13.3Q507.7-9.95 508.78-7.35 509.86-4.75 511.81-3.28 513.75-1.8 516.31-1.8L516.31-1.8Q518.65-1.8 520.81-3.05 522.96-4.3 524.15-6.1L524.15-6.1 525.46-5.1Q524.15-3 522.33-1.7 520.5-0.4 518.58 0.2 516.65 0.8 514.96 0.8ZM541.2 0.8L541.2 0.8Q537.75 0.8 534.98-0.83 532.2-2.45 530.6-5.43 529-8.4 529-12.45L529-12.45Q529-15.95 530.58-19 532.15-22.05 535-23.93 537.85-25.8 541.6-25.8L541.6-25.8Q543.7-25.8 545.53-25.13 547.35-24.45 548.75-23.08 550.15-21.7 550.95-19.63 551.75-17.55 551.75-14.75L551.75-14.75 534.15-14.45Q534.15-10.65 534.98-7.78 535.8-4.9 537.65-3.33 539.5-1.75 542.4-1.75L542.4-1.75Q543.95-1.75 545.58-2.3 547.2-2.85 548.6-3.8 550-4.75 550.85-5.9L550.85-5.9 552.05-4.9Q550.7-2.8 548.8-1.55 546.9-0.3 544.9 0.25 542.9 0.8 541.2 0.8ZM534.3-16.55L534.3-16.55 547.05-16.55Q547.05-18.35 546.53-20.03 546-21.7 544.8-22.78 543.6-23.85 541.65-23.85L541.65-23.85Q538.75-23.85 536.83-22.13 534.9-20.4 534.3-16.55Z" opacity="1" transform="matrix(1,0,0,1,0,0)" fill="black" class="slogan-text-1" id="SvgjsPath1336"></path></svg></g></svg></g></svg></g></svg></g><g transform="matrix(1,0,0,1,0,8.481127060800432)"><svg viewBox="0 0 86.61887999999999 40.55487078590342" height="40.55487078590342" width="86.61887999999999"><g><svg xmlns="http://www.w3.org/2000/svg" xmlns:xlink="http://www.w3.org/1999/xlink" xml:space="preserve" style="shape-rendering:geometricPrecision;text-rendering:geometricPrecision;image-rendering:optimizeQuality;" viewBox="0.00005081202834844589 0.00006598234176635742 65.4085464477539 37.56269073486328" x="8" y="0" fill-rule="evenodd" clip-rule="evenodd" width="70.61887999999999" height="40.55487078590342" class="icon-icon-0" data-fill-palette-color="accent" id="SvgjsSvg1335"><g fill="black"><path class="" d="M2.847 3.071c0.092 0.554 0.181 1.112 0.263 1.672 0.644 4.357 0.929 8.884-0.487 13.044-1.268 3.722-2.427 7.315-2.199 11.226-0.036 0.811-0.289 1.237-0.346 2.074-0.035 0.507-0.056 1.004-0.069 1.404-0.034 1.066 0.025 1.354 0.206 2.153 0.077 0.346 0.226 0.477 0.447 0.595 2.316 1.301 7.567 1.889 11.119 1.742 0.863-0.036 1.625-0.067 2.2-0.071 0.007 0 0.015 0 0.023 0 2.856-0.106 6.939-0.168 10.881-0.137 3.223 0.026 6.359 0.115 8.659 0.294l0 0c2.422 0.245 4.323 0.379 6.212 0.444 1.882 0.065 3.75 0.061 6.112 0.029 3.196 0.039 6.859-0.46 10.159-1.168 3.737-0.801 7.03-1.875 8.669-2.741 0.473-0.233 0.563-0.567 0.625-0.907 0.082-0.722 0.119-1.48 0.055-2.31-0.065-0.852-0.236-1.778-0.571-2.818-0.101-0.298-0.294-0.726-0.725-1.021-2.321-1.673-5.456-1.304-8.159-1.264-0.458 0.012-0.977 0.069-1.473 0.087l-0.006-0.009c-0.095 0.004-0.191 0.007-0.286 0.01-0.452-0.095-1.415-0.314-2.232-0.5-0.749-0.171-1.19 0.55-1.318 1.236-0.005 0.044-0.013 0.087-0.021 0.131-0.155 0.753-0.857 1.267-1.642 1.153-0.786-0.113-1.317-0.856-1.215-1.658 0.12-0.948-0.048-1.94-1.513-2.426-0.44-0.146-0.833-0.309-1.226-0.479-1.21-0.52-1.981-0.324-2.694 1.401-0.017 0.041-0.036 0.08-0.055 0.12-0.351 0.684-1.166 0.99-1.893 0.669-0.726-0.32-1.087-1.196-0.748-1.93 0.593-1.285 0.932-2.294-0.522-3.114-0.325-0.184-0.621-0.391-0.928-0.575-1.057-0.634-1.886-1.191-3.216 0.324l-0.601 0.741c-0.027 0.035-0.056 0.068-0.085 0.101-0.522 0.565-1.4 0.632-2.003 0.138-0.625-0.512-0.717-1.435-0.204-2.06 0.161-0.196 0.32-0.395 0.483-0.59 0.789-0.947 1.364-2.084-0.328-3.697-1.139-1.086-1.879-1.567-3.77 0.002l-0.628 0.528c-0.033 0.029-0.068 0.056-0.103 0.083-0.619 0.456-1.494 0.355-1.993-0.244-0.517-0.622-0.432-1.545 0.191-2.062 0.321-0.267 0.632-0.547 0.962-0.801 1.967-1.517 0.894-2.75 0.123-3.596-0.904-0.992-1.552-1.802-3.56-0.289l-0.746 0.603c-0.034 0.029-0.069 0.055-0.105 0.082-0.628 0.444-1.501 0.327-1.987-0.282-0.505-0.631-0.403-1.552 0.228-2.057 0.449-0.359 0.877-0.745 1.345-1.08 1.523-1.091 0.226-3.505-0.641-4.524-0.811-0.953-1.308-0.887-2.371-0.398-0.838 0.386-1.881 1.2-2.447 2.129-2.066 2.986-5.124-0.215-8.107-0.631-1.743-0.243-6.72-1.562-5.739 1.224z m-0.779 27.158c1.691 0.316 4.381 1.662 8.618 1.572 6.634-0.14 13.799-1.071 21.034-0.1 11.462 1.537 18.055 0.866 23.468-1.579 0.535-0.079 0.855-0.952 0.742-1.361-0.21-0.79-0.511-1.614-0.83-2.238-0.057-0.364 0.415-0.349 0.892-0.369 3.682-0.101 5.569-0.219 7.315 0.946 0.402 0.268 0.566 0.474 0.671 0.813 0.292 0.943 0.449 1.783 0.508 2.557 0.151 1.974-0.131 2.416-1.614 3.01-1.706 0.683-4.172 1.41-7 2.016-3.26 0.699-6.868 1.192-10.001 1.153l-0.008 0-0.002 0c-2.349 0.032-4.207-0.105-6.082-0.17-5.036-0.174-9.662-0.554-14.888-0.596-4.339-0.035-8.816 0.03-13.139 0.208-2.972 0.122-6.918-0.277-9.339-1.089-1.148-0.385-1.222-0.459-1.3-1.604-0.063-0.924-0.068-2.318 0.166-2.732 0.217-0.385 0.557-0.449 0.789-0.437z m11.573-20.256c-3.652 0-6.612 2.96-6.611 6.612 0 3.652 2.96 6.612 6.611 6.612 3.652 0 6.612-2.96 6.612-6.612 0-3.652-2.96-6.612-6.612-6.612z" fill="black"></path></g></svg></g></svg></g></svg></g></svg></g></svg></g><defs></defs></svg><rect width="320" height="360" fill="black" stroke="none" visibility="hidden"></rect></g></mask><linearGradient x1="0.054" x2="0.941" y1="0.5" y2="0.5" id="c5c6e039-eca8-44c0-b42d-afb610a564cd"><stop stop-color="#8c8c8c" offset="0"></stop><stop stop-color="#e3e4e5" offset="0.498"></stop><stop stop-color="#8c8c8c" offset="1"></stop></linearGradient></svg><rect width="320" height="360" fill="none" stroke="none" visibility="hidden"></rect></g></svg></g></g></g></g><rect width="140.20130856911294" height="37.1787358188424" x="282.79255704680475" y="175.79562375113005" rx="2.5" ry="2.5" fill="transparent" class="logo-element-hover-target"></rect><rect width="91.22876202261727" height="19.285899343007884" x="307.27884812271543" y="206.9184626798757" rx="2.5" ry="2.5" fill="transparent" class="logo-element-hover-target"></rect><rect width="59.15789060745669" height="39.08156580353992" x="224.34212205772735" y="181.45908822773941" rx="2.5" ry="2.5" fill="transparent" class="logo-element-hover-target"></rect></svg>